<?xml version="1.0" standalone="no"?>
<!DOCTYPE svg PUBLIC "-//W3C//DTD SVG 20010904//EN" "http://www.w3.org/TR/2001/REC-SVG-20010904/DTD/svg10.dtd">
<svg xmlns="http://www.w3.org/2000/svg" version="1.0" width="1024.000000pt" height="1024.000000pt" viewBox="0 0 1024.000000 1024.000000" preserveAspectRatio="xMidYMid meet">
<metadata>
Created by potrace 1.16, written by Peter Selinger 2001-2019
<meta name="Producer" content="Online-Convert"/></metadata>
<g transform="translate(0.000000,1024.000000) scale(0.100000,-0.100000)" fill="#000000" stroke="none">
<path d="M0 5120 l0 -5120 5120 0 5120 0 0 5120 0 5120 -5120 0 -5120 0 0 -5120z m1780 366 c0 -498 4 -813 10 -847 13 -68 40 -96 105 -108 93 -17 167 8 193 67 15 33 17 117 20 860 l3 822 164 0 165 0 0 -787 c0 -443 -4 -825 -10 -872 -31 -269 -155 -377 -450 -388 -300 -12 -457 82 -517 309 -14 56 -17 161 -20 901 l-4 837 170 0 171 0 0 -794z m1364 432 c71 -200 158 -446 195 -547 l66 -183 3 546 2 546 165 0 166 0 -3 -817 c-2 -450 -4 -909 -6 -1020 l-3 -203 -167 0 -167 0 -63 198 c-35 108 -118 366 -184 572 -65 206 -128 400 -138 430 -18 55 -18 52 -19 -572 l-1 -628 -160 0 -160 0 0 1020 0 1020 173 0 173 0 128 -362z m1166 -508 l0 -870 235 0 235 0 0 -150 0 -150 -402 0 -403 0 3 1020 2 1020 165 0 165 0 0 -870z m960 118 c1 -414 3 -800 7 -857 3 -57 2 -178 -2 -267 l-7 -164 -164 0 -164 0 0 1020 0 1020 165 0 165 0 0 -752z m490 746 c0 -3 13 -90 30 -192 47 -295 168 -1078 181 -1172 21 -154 3 -239 168 810 45 283 84 525 86 538 5 22 7 22 171 22 153 0 165 -1 160 -17 -3 -10 -15 -72 -26 -138 -12 -66 -60 -322 -106 -570 -142 -749 -244 -1298 -244 -1307 0 -4 -85 -8 -190 -8 -188 0 -190 0 -195 23 -2 12 -34 182 -70 377 -37 195 -120 641 -186 990 -65 349 -119 638 -119 643 0 4 77 7 170 7 94 0 170 -3 170 -6z m1755 -144 l0 -150 -240 -2 -240 -3 0 -265 0 -265 215 -3 215 -2 -3 -155 -3 -155 -215 0 -214 0 2 -292 3 -293 253 -3 252 -2 0 -150 0 -150 -420 0 -420 0 0 1020 0 1020 408 0 407 0 0 -150z m821 135 c156 -27 265 -96 322 -203 67 -126 67 -121 67 -797 0 -549 -2 -617 -18 -679 -44 -175 -138 -271 -313 -321 -48 -14 -118 -18 -376 -22 l-316 -5 -2 1021 -1 1021 274 0 c200 0 299 -4 363 -15z m394 -2380 l0 -55 -1900 0 -1900 0 0 55 0 55 1900 0 1900 0 0 -55z"/>
<path d="M8040 5261 l0 -721 75 0 c149 0 233 39 255 118 15 54 14 1158 -1 1203 -28 81 -82 109 -226 117 l-103 5 0 -722z"/>
</g>
</svg>
