<?xml version="1.0" standalone="no"?>
<!DOCTYPE svg PUBLIC "-//W3C//DTD SVG 20010904//EN" "http://www.w3.org/TR/2001/REC-SVG-20010904/DTD/svg10.dtd">
<svg xmlns="http://www.w3.org/2000/svg" version="1.0" width="1024.000000pt" height="1024.000000pt" viewBox="0 0 1024.000000 1024.000000" preserveAspectRatio="xMidYMid meet">
<metadata>
Created by potrace 1.16, written by Peter Selinger 2001-2019
<meta name="Producer" content="Online-Convert"/></metadata>
<g transform="translate(0.000000,1024.000000) scale(0.100000,-0.100000)" fill="#000000" stroke="none">
<path d="M0 5120 l0 -5120 5120 0 5120 0 0 5120 0 5120 -5120 0 -5120 0 0 -5120z m5200 2600 c92 -47 127 -158 78 -250 -19 -34 -37 -51 -76 -70 l-51 -25 0 -655 c-1 -360 2 -732 6 -827 l6 -172 41 -6 c23 -4 65 -14 93 -23 29 -8 55 -14 57 -11 5 4 171 409 334 811 95 234 100 249 81 258 -31 17 -59 84 -59 141 0 159 187 240 304 131 113 -106 48 -293 -109 -311 l-56 -6 -29 -70 c-16 -38 -113 -277 -215 -530 l-186 -460 26 -22 c14 -13 30 -23 34 -23 15 0 378 407 853 957 119 138 259 299 312 357 l95 107 -21 46 c-71 162 113 318 265 224 52 -32 92 -116 83 -175 -14 -90 -88 -156 -178 -156 -26 0 -58 4 -72 9 -27 11 -10 30 -551 -594 -148 -170 -372 -426 -497 -568 l-229 -257 33 -40 c18 -22 36 -40 39 -40 3 0 126 78 274 173 l269 172 -3 57 c-7 148 137 239 271 172 92 -47 118 -198 47 -279 -61 -69 -162 -82 -240 -30 l-37 24 -193 -126 c-107 -69 -229 -148 -271 -175 -43 -28 -78 -53 -78 -57 1 -3 6 -16 13 -28 12 -21 13 -21 217 56 270 103 483 185 715 275 l190 73 6 56 c11 98 78 157 179 157 69 0 123 -29 155 -83 65 -112 -2 -252 -131 -273 -53 -8 -105 9 -150 49 l-35 30 -392 -151 c-216 -84 -464 -180 -552 -215 l-160 -63 2 -35 c2 -19 5 -49 8 -66 l6 -33 857 0 857 0 16 39 c32 74 140 119 222 92 149 -49 173 -250 39 -328 -102 -60 -221 -20 -267 90 l-15 37 -769 0 c-422 0 -809 -3 -859 -6 l-92 -7 0 -28 c0 -15 -4 -39 -10 -53 -9 -24 -7 -26 67 -53 42 -15 342 -128 667 -249 l591 -222 22 25 c80 85 241 64 294 -39 27 -53 23 -144 -8 -186 -103 -139 -317 -87 -331 82 l-4 54 -82 31 c-556 211 -1198 447 -1232 453 -10 2 -20 -4 -21 -12 -4 -15 147 -105 589 -350 l147 -81 37 27 c47 37 141 45 193 17 59 -31 94 -85 98 -151 7 -104 -61 -182 -165 -190 -115 -8 -197 67 -197 179 l0 58 -50 27 c-78 42 -652 362 -674 376 -17 11 -24 7 -60 -32 -41 -46 -49 -64 -31 -75 10 -6 526 -607 1032 -1201 l198 -232 42 15 c131 45 268 -87 228 -220 -25 -84 -125 -148 -203 -132 -121 26 -186 141 -139 247 l20 45 -136 159 c-361 424 -851 995 -974 1136 l-138 157 -45 -30 c-25 -17 -69 -39 -98 -49 -28 -11 -52 -25 -51 -32 2 -28 187 -809 234 -989 9 -32 15 -36 59 -48 37 -9 60 -24 90 -56 44 -47 57 -93 46 -152 -25 -137 -189 -196 -295 -107 -43 37 -61 78 -61 139 0 64 19 105 66 141 26 19 34 32 30 48 -50 220 -197 830 -226 939 -20 72 -23 77 -49 77 l-27 0 -2 -904 -2 -905 44 -19 c24 -11 57 -37 73 -58 26 -33 29 -45 29 -109 0 -63 -3 -76 -28 -108 -37 -48 -80 -70 -142 -70 -126 -2 -205 98 -181 228 9 46 56 99 106 119 l40 16 0 693 c0 382 -3 789 -7 905 l-6 211 -46 7 c-25 4 -54 10 -63 15 -14 7 -20 0 -36 -44 -36 -95 -170 -468 -281 -782 l-110 -310 34 -35 c60 -62 71 -131 34 -208 -51 -105 -188 -132 -280 -55 -42 36 -59 74 -59 135 0 98 68 175 160 181 l45 3 73 204 c115 319 320 905 324 923 2 12 -14 27 -49 47 l-51 29 -99 -112 c-54 -61 -148 -170 -208 -242 -60 -71 -239 -282 -398 -467 l-288 -337 14 -28 c40 -78 27 -157 -33 -215 -85 -80 -211 -66 -276 30 -91 134 38 310 200 273 27 -6 50 -10 51 -9 1 2 85 100 186 218 101 119 279 328 394 465 116 137 252 298 303 357 50 59 92 111 92 115 0 4 -12 19 -26 34 l-26 28 -137 -103 c-75 -57 -203 -151 -286 -211 -199 -143 -184 -128 -172 -174 27 -99 -70 -220 -176 -221 -40 0 -97 26 -135 63 -83 80 -58 227 49 283 41 21 127 18 173 -6 l39 -19 66 46 c124 88 376 276 451 336 41 34 76 62 78 63 6 4 -22 54 -29 52 -4 -2 -295 -129 -648 -283 l-641 -280 0 -43 c0 -137 -142 -222 -267 -161 -106 51 -128 205 -41 286 30 29 89 53 128 53 38 0 98 -24 127 -52 21 -19 24 -20 60 -5 100 40 1013 442 1127 496 126 60 128 61 121 88 -4 16 -11 45 -15 66 -4 21 -11 41 -15 45 -3 4 -388 8 -855 10 l-848 3 -20 -43 c-49 -113 -182 -149 -281 -78 -106 77 -88 251 34 310 89 43 202 6 241 -79 l19 -40 857 -1 856 0 7 48 c3 26 6 52 5 57 -1 12 -2 12 -743 255 l-579 190 -20 -25 c-28 -36 -90 -65 -139 -65 -159 0 -243 181 -141 302 61 72 191 80 260 15 34 -31 62 -90 62 -129 l0 -34 413 -133 c680 -221 898 -291 908 -291 8 0 39 51 39 64 0 8 -477 324 -500 331 -12 4 -30 -2 -48 -15 -96 -71 -234 -28 -278 85 -32 86 8 189 89 226 133 60 275 -33 265 -174 l-3 -51 70 -44 c38 -25 154 -101 258 -168 l187 -123 34 37 34 37 -36 40 c-34 38 -486 526 -811 875 -85 91 -159 171 -166 178 -9 10 -17 10 -41 -3 -54 -28 -146 -13 -198 33 -27 24 -56 91 -56 132 0 132 149 222 267 161 89 -45 124 -160 75 -246 -9 -16 2 -32 71 -105 44 -47 227 -242 405 -435 179 -192 374 -401 434 -462 l109 -112 49 27 c27 15 50 30 50 33 0 8 -155 420 -300 797 l-113 292 -39 0 c-129 0 -213 128 -163 247 21 50 42 72 90 94 120 55 255 -26 255 -154 0 -58 -14 -94 -51 -133 l-30 -31 49 -124 c27 -68 120 -308 207 -534 86 -225 160 -413 164 -417 6 -7 150 18 160 28 2 2 6 373 9 824 l5 819 -29 13 c-85 36 -124 93 -124 179 0 135 139 221 260 159z"/>
<path d="M5065 7658 c-37 -20 -55 -51 -55 -99 0 -57 26 -94 76 -108 78 -22 144 31 144 115 0 52 -53 104 -106 104 -22 0 -48 -6 -59 -12z"/>
<path d="M6833 7236 c-42 -19 -68 -71 -59 -119 20 -109 181 -119 216 -13 14 44 5 77 -29 110 -34 33 -85 41 -128 22z"/>
<path d="M4324 7006 c-28 -28 -34 -42 -34 -76 0 -34 6 -48 34 -76 28 -28 42 -34 76 -34 34 0 48 6 76 34 28 28 34 42 34 76 0 34 -6 48 -34 76 -28 28 -42 34 -76 34 -34 0 -48 -6 -76 -34z"/>
<path d="M5818 6981 c-87 -69 -37 -201 76 -201 30 0 45 7 73 35 33 33 35 39 30 81 -7 63 -40 95 -104 101 -38 4 -53 1 -75 -16z"/>
<path d="M3512 6894 c-26 -18 -52 -65 -52 -94 0 -55 57 -110 115 -110 110 0 146 159 48 209 -31 16 -85 14 -111 -5z"/>
<path d="M6283 5985 c-66 -29 -84 -122 -34 -177 26 -29 35 -33 81 -33 46 0 55 4 81 33 80 90 -18 226 -128 177z"/>
<path d="M3874 5961 c-37 -23 -59 -77 -49 -121 16 -75 122 -106 184 -54 104 88 -18 246 -135 175z"/>
<path d="M6889 5891 c-55 -55 -33 -150 41 -181 66 -27 150 28 150 99 0 70 -44 111 -120 111 -33 0 -48 -6 -71 -29z"/>
<path d="M2970 5872 c-94 -95 12 -238 130 -177 32 17 60 61 60 95 0 29 -26 76 -52 94 -12 9 -42 16 -66 16 -35 0 -49 -6 -72 -28z"/>
<path d="M2572 5204 c-57 -29 -77 -95 -47 -153 14 -29 68 -61 102 -61 30 0 81 37 98 71 47 91 -60 190 -153 143z"/>
<path d="M7563 5204 c-60 -30 -78 -118 -34 -168 68 -79 201 -33 201 69 0 59 -55 115 -112 115 -13 0 -37 -8 -55 -16z"/>
<path d="M7121 4456 c-55 -31 -68 -114 -25 -165 65 -78 194 -31 194 71 0 56 -51 108 -106 108 -22 -1 -50 -7 -63 -14z"/>
<path d="M6478 4407 c-38 -31 -51 -70 -38 -117 29 -109 189 -104 216 5 9 37 -3 74 -36 106 -37 38 -101 40 -142 6z"/>
<path d="M3064 4350 c-37 -15 -64 -59 -64 -104 1 -65 45 -106 115 -106 49 0 105 53 105 99 0 85 -80 142 -156 111z"/>
<path d="M3808 4301 c-28 -25 -33 -36 -33 -74 0 -53 28 -90 82 -108 45 -15 101 12 125 61 52 107 -85 201 -174 121z"/>
<path d="M3595 3466 c-48 -21 -70 -53 -70 -101 0 -35 6 -50 29 -74 55 -58 128 -50 174 19 39 58 15 127 -55 156 -39 17 -40 17 -78 0z"/>
<path d="M5493 3426 c-90 -40 -88 -164 4 -202 45 -19 92 -5 128 37 36 44 34 90 -7 133 -39 40 -80 51 -125 32z"/>
<path d="M4403 3355 c-70 -30 -90 -120 -39 -174 93 -97 247 15 179 130 -17 28 -67 59 -95 59 -7 -1 -27 -7 -45 -15z"/>
<path d="M6823 3184 c-40 -20 -67 -74 -59 -118 12 -63 86 -107 143 -85 96 36 109 139 24 196 -40 27 -64 28 -108 7z"/>
<path d="M5074 2640 c-61 -24 -85 -121 -44 -173 67 -85 200 -36 200 73 0 77 -82 130 -156 100z"/>
</g>
</svg>
