<?xml version="1.0" standalone="no"?>
<!DOCTYPE svg PUBLIC "-//W3C//DTD SVG 20010904//EN" "http://www.w3.org/TR/2001/REC-SVG-20010904/DTD/svg10.dtd">
<svg xmlns="http://www.w3.org/2000/svg" version="1.0" width="1024.000000pt" height="1024.000000pt" viewBox="0 0 1024.000000 1024.000000" preserveAspectRatio="xMidYMid meet">
<metadata>
Created by potrace 1.16, written by Peter Selinger 2001-2019
<meta name="Producer" content="Online-Convert"/></metadata>
<g transform="translate(0.000000,1024.000000) scale(0.100000,-0.100000)" fill="#000000" stroke="none">
<path d="M0 5120 l0 -5120 5120 0 5120 0 0 5120 0 5120 -5120 0 -5120 0 0 -5120z m4425 1576 c1057 -637 1429 -862 1796 -1085 l394 -239 3 -300 2 -300 -172 -105 c-328 -198 -1006 -605 -1727 -1038 l-725 -434 -57 0 c-64 0 -98 18 -136 75 -23 32 -23 39 -23 316 l0 283 30 16 c39 20 936 558 1305 782 588 357 655 398 655 404 0 4 -1329 816 -1803 1101 l-188 112 3 286 c3 283 3 285 27 319 13 18 42 42 65 52 80 38 90 34 551 -245z"/>
</g>
</svg>
