<?xml version="1.0" standalone="no"?>
<!DOCTYPE svg PUBLIC "-//W3C//DTD SVG 20010904//EN" "http://www.w3.org/TR/2001/REC-SVG-20010904/DTD/svg10.dtd">
<svg xmlns="http://www.w3.org/2000/svg" version="1.0" width="1024.000000pt" height="1024.000000pt" viewBox="0 0 1024.000000 1024.000000" preserveAspectRatio="xMidYMid meet">
<metadata>
Created by potrace 1.16, written by Peter Selinger 2001-2019
<meta name="Producer" content="Online-Convert"/></metadata>
<g transform="translate(0.000000,1024.000000) scale(0.100000,-0.100000)" fill="#000000" stroke="none">
<path d="M0 5120 l0 -5120 5120 0 5120 0 0 5120 0 5120 -5120 0 -5120 0 0 -5120z m5351 2608 c30 -14 252 -148 494 -298 604 -375 1131 -702 1440 -895 143 -89 433 -269 645 -400 793 -492 1086 -676 1114 -702 79 -75 73 -204 -14 -271 -14 -10 -122 -72 -240 -137 -118 -65 -276 -152 -350 -193 -74 -41 -214 -117 -310 -169 -96 -53 -258 -142 -360 -198 -102 -56 -432 -239 -735 -405 -302 -167 -736 -406 -964 -533 -228 -126 -450 -247 -495 -268 -98 -47 -186 -60 -253 -35 -23 8 -221 125 -440 259 -219 134 -526 322 -683 417 -157 95 -393 239 -525 320 -332 204 -602 368 -1315 802 -733 447 -848 517 -962 590 l-88 55 393 219 c215 120 547 304 737 409 418 232 860 477 1835 1019 407 226 763 419 790 429 73 26 212 19 286 -15z m-4030 -2119 c34 -17 40 -24 35 -42 -58 -204 -37 -714 32 -778 9 -9 179 -114 377 -234 453 -274 1042 -633 1550 -945 132 -81 497 -304 810 -495 314 -191 695 -424 848 -518 153 -93 286 -170 295 -171 12 -1 18 8 20 34 l3 35 487 269 c268 149 588 326 712 394 124 68 288 159 365 202 77 42 302 166 500 275 198 109 540 298 760 420 220 122 478 264 573 316 l172 94 0 57 c0 32 4 58 8 58 13 0 186 -115 202 -134 13 -17 12 -21 -12 -41 -22 -19 -1072 -605 -2218 -1237 -184 -102 -436 -242 -560 -310 -124 -69 -333 -185 -465 -258 -347 -193 -500 -270 -533 -270 -52 0 -104 25 -297 145 -105 65 -361 222 -570 350 -209 128 -654 400 -990 605 -626 383 -1904 1163 -2054 1254 -95 57 -125 93 -169 199 -47 111 -67 223 -66 367 1 176 30 286 92 353 31 32 41 33 93 6z m204 -126 c83 -52 722 -442 1045 -638 102 -62 430 -263 730 -446 300 -183 739 -450 975 -594 237 -144 532 -324 657 -401 125 -76 248 -151 273 -167 44 -26 46 -29 40 -60 -4 -17 -9 -34 -11 -36 -3 -3 -51 26 -409 244 -247 151 -906 554 -1820 1110 -110 67 -398 243 -640 390 -242 148 -555 337 -695 421 -140 84 -263 159 -273 166 -15 11 -16 18 -5 51 11 35 13 36 32 24 12 -8 57 -36 101 -64z m-6 -134 c196 -118 1377 -836 1771 -1077 435 -267 915 -559 1475 -898 248 -150 457 -279 465 -286 11 -9 14 -28 12 -64 l-4 -51 -126 77 c-536 326 -1695 1033 -2207 1345 -782 477 -968 591 -1285 782 -140 85 -255 159 -254 164 1 5 2 27 3 49 0 22 4 40 8 40 3 0 67 -37 142 -81z m381 -392 c272 -165 767 -467 1100 -670 333 -203 718 -438 855 -522 138 -83 435 -264 660 -402 226 -137 483 -294 573 -347 175 -106 172 -102 153 -177 -7 -29 63 -69 -916 529 -203 124 -500 305 -660 402 -159 97 -362 221 -450 275 -88 54 -232 142 -320 195 -88 53 -428 260 -755 460 -327 200 -637 388 -687 419 l-93 56 0 53 c0 52 1 52 23 41 12 -7 245 -147 517 -312z m-248 -11 c292 -177 379 -230 1488 -906 454 -276 944 -576 1090 -665 319 -196 887 -541 951 -577 62 -36 67 -45 60 -100 l-6 -47 -265 161 c-434 264 -1805 1101 -2045 1248 -160 98 -881 537 -1240 755 -170 104 -310 189 -311 189 -1 1 -4 27 -8 59 -6 56 -6 57 14 47 11 -6 133 -80 272 -164z m7166 -17 l-3 -61 -285 -157 c-157 -87 -663 -366 -1125 -621 -462 -254 -1122 -620 -1467 -811 -345 -192 -632 -349 -638 -349 -6 0 -10 27 -10 64 l0 64 98 55 c53 30 126 68 162 84 36 16 322 172 635 345 314 173 707 390 875 483 168 92 458 252 645 355 187 103 507 278 710 390 204 111 374 206 380 211 20 20 26 7 23 -52z m-7316 -52 c57 -35 324 -198 593 -362 576 -350 1086 -661 1680 -1025 343 -210 1276 -778 1433 -872 30 -18 32 -23 32 -74 0 -30 -2 -54 -4 -54 -4 0 -689 416 -1146 697 -313 192 -970 592 -1905 1162 -817 498 -775 471 -781 500 -3 14 -10 41 -14 59 -5 17 -5 32 0 32 5 0 55 -29 112 -63z m7318 -126 l0 -70 -77 -42 c-92 -50 -1063 -585 -1278 -704 -82 -46 -449 -248 -815 -450 -632 -349 -1124 -622 -1273 -706 -38 -22 -73 -39 -78 -39 -6 0 -9 29 -7 66 l3 66 675 375 c371 206 878 486 1125 622 436 241 1569 866 1670 923 28 15 51 28 53 28 1 0 2 -31 2 -69z m0 -189 l0 -68 -82 -46 c-46 -25 -155 -85 -243 -133 -88 -48 -308 -170 -490 -270 -181 -101 -724 -400 -1205 -665 -481 -266 -951 -526 -1045 -578 -257 -143 -455 -252 -460 -252 -3 0 -5 30 -5 68 l1 67 492 272 c271 149 679 374 907 501 228 126 597 329 820 452 223 122 443 244 490 270 47 26 202 112 345 190 143 79 305 169 360 201 55 31 103 58 108 58 4 1 7 -30 7 -67z"/>
<path d="M5740 6384 c-476 -259 -1027 -560 -1555 -846 -313 -170 -577 -316 -585 -324 -9 -9 -11 -17 -5 -23 22 -21 294 -181 309 -181 14 0 158 77 906 488 135 74 355 194 490 267 755 411 935 511 938 525 2 10 -45 45 -139 103 -78 49 -147 90 -153 93 -6 2 -99 -44 -206 -102z m282 5 c46 -29 98 -61 116 -71 17 -11 32 -21 32 -23 0 -4 -7 -8 -780 -430 -355 -194 -692 -378 -750 -410 -58 -32 -157 -86 -220 -120 -63 -35 -203 -111 -310 -170 -107 -58 -198 -107 -201 -108 -10 -3 -239 137 -239 145 0 4 19 17 43 29 42 21 914 495 1767 961 250 136 456 248 457 248 1 0 39 -23 85 -51z"/>
</g>
</svg>
