<?xml version="1.0" standalone="no"?>
<!DOCTYPE svg PUBLIC "-//W3C//DTD SVG 20010904//EN" "http://www.w3.org/TR/2001/REC-SVG-20010904/DTD/svg10.dtd">
<svg xmlns="http://www.w3.org/2000/svg" version="1.0" width="1024.000000pt" height="1024.000000pt" viewBox="0 0 1024.000000 1024.000000" preserveAspectRatio="xMidYMid meet">
<metadata>
Created by potrace 1.16, written by Peter Selinger 2001-2019
<meta name="Producer" content="Online-Convert"/></metadata>
<g transform="translate(0.000000,1024.000000) scale(0.100000,-0.100000)" fill="#000000" stroke="none">
<path d="M0 5120 l0 -5120 5120 0 5120 0 0 5120 0 5120 -5120 0 -5120 0 0 -5120z m8044 554 c19 -18 20 -28 6 -55 -11 -19 -54 -19 -2953 -19 -2276 0 -2946 3 -2955 12 -7 7 -12 21 -12 33 0 12 5 26 12 33 9 9 678 12 2949 12 2657 0 2939 -1 2953 -16z m-656 -292 c9 -7 12 -55 10 -208 -3 -184 -4 -199 -22 -202 -10 -2 -23 1 -28 6 -7 7 -10 82 -9 198 2 203 9 231 49 206z m-1228 -121 c14 -27 13 -37 -6 -55 -14 -14 -210 -16 -2008 -16 -1536 0 -1995 3 -2004 12 -7 7 -12 21 -12 33 0 12 5 26 12 33 9 9 469 12 2010 12 1964 0 1997 0 2008 -19z m965 -196 c121 -116 138 -137 129 -152 -23 -38 -44 -26 -173 99 -71 68 -132 131 -136 141 -7 19 10 47 29 47 6 0 74 -61 151 -135z m669 112 c10 -16 -7 -36 -129 -153 -145 -139 -180 -159 -180 -103 0 21 28 54 133 153 79 76 139 126 149 124 9 -2 21 -11 27 -21z m-4920 -313 c22 -21 20 -61 -3 -74 -13 -6 -145 -10 -361 -10 -216 0 -348 4 -361 10 -25 14 -26 65 -1 79 10 7 147 11 364 11 302 0 349 -2 362 -16z m3756 -4 c24 -24 25 -38 3 -62 -15 -17 -84 -18 -1786 -18 -1633 0 -1772 1 -1789 17 -22 20 -23 41 -1 65 15 17 84 18 1785 18 1755 0 1768 0 1788 -20z m465 -69 c98 -6 100 -6 100 -31 l0 -25 -200 0 c-184 0 -200 1 -203 18 -9 48 43 55 303 38z m487 -163 c112 -89 279 -225 372 -302 l169 -140 -154 -24 c-85 -14 -155 -26 -157 -27 -2 -2 41 -83 96 -182 55 -98 109 -197 121 -220 l21 -42 -66 -37 c-36 -20 -69 -33 -73 -28 -4 5 -45 77 -91 159 -46 83 -99 176 -118 208 l-34 59 -29 -34 c-16 -18 -61 -72 -101 -120 -40 -48 -74 -86 -75 -84 -4 4 -52 495 -68 691 -8 105 -17 211 -20 238 -3 26 -4 47 -1 47 2 0 96 -73 208 -162z m-942 -157 c14 -27 13 -37 -6 -55 -14 -14 -232 -16 -2248 -16 -1723 0 -2235 3 -2244 12 -7 7 -12 21 -12 33 0 12 5 26 12 33 9 9 523 12 2250 12 2202 0 2237 0 2248 -19z m-3338 -397 c9 -18 9 -30 1 -42 -9 -16 -60 -17 -578 -20 -411 -1 -572 1 -581 9 -17 14 -18 51 -2 67 9 9 152 12 580 12 l568 0 12 -26z"/>
</g>
</svg>
